<?xml version="1.0" encoding="UTF-8"?>
<svg width="77px" height="18px" viewBox="0 0 77 18" version="1.1" xmlns="http://www.w3.org/2000/svg" xmlns:xlink="http://www.w3.org/1999/xlink">
    <!-- Generator: Sketch 63.1 (92452) - https://sketch.com -->
    <title>tripdrop</title>
    <desc>Created with Sketch.</desc>
    <defs>
        <linearGradient x1="37.9994578%" y1="48.6243722%" x2="60.0226464%" y2="53.2936358%" id="linearGradient-1">
            <stop stop-color="#4A90E2" offset="0%"></stop>
            <stop stop-color="#BD10E0" offset="100%"></stop>
        </linearGradient>
        <path d="M6.919,14 L6.919,3.398 L10.393,3.398 L10.393,1.13 L0.511,1.13 L0.511,3.398 L3.985,3.398 L3.985,14 L6.919,14 Z M13.975,14 L13.975,9.284 C13.975,7.484 15.091,6.854 17.017,6.872 L17.017,4.442 C15.487,4.46 14.569,5.126 13.975,6.386 L13.975,4.586 L11.365,4.586 L11.365,14 L13.975,14 Z M20.077,3.308 C20.923,3.308 21.571,2.696 21.571,1.886 C21.571,1.076 20.923,0.464 20.077,0.464 C19.249,0.464 18.601,1.076 18.601,1.886 C18.601,2.696 19.249,3.308 20.077,3.308 Z M21.391,14 L21.391,4.586 L18.799,4.586 L18.799,14 L21.391,14 Z M26.395,17.204 L26.395,12.56 C26.881,13.478 27.943,14.198 29.401,14.198 C31.741,14.198 33.505,12.452 33.505,9.338 L33.505,9.194 C33.505,6.08 31.705,4.37 29.401,4.37 C28.015,4.37 26.917,5.162 26.395,6.062 L26.395,4.586 L23.785,4.586 L23.785,17.204 L26.395,17.204 Z M28.627,12.164 C27.205,12.164 26.305,11.246 26.305,9.356 L26.305,9.212 C26.305,7.322 27.241,6.368 28.609,6.368 C29.923,6.368 30.859,7.304 30.859,9.212 L30.859,9.356 C30.859,11.192 30.067,12.164 28.627,12.164 Z M39.679,14 C44.197,14 46.447,11.426 46.447,7.574 L46.447,7.43 C46.447,3.578 44.215,1.13 39.697,1.13 L35.485,1.13 L35.485,14 L39.679,14 Z M39.589,11.732 L38.401,11.732 L38.401,3.398 L39.553,3.398 C42.271,3.398 43.405,4.82 43.405,7.466 L43.405,7.61 C43.405,10.274 42.181,11.732 39.589,11.732 Z M50.929,14 L50.929,9.284 C50.929,7.484 52.045,6.854 53.971,6.872 L53.971,4.442 C52.441,4.46 51.523,5.126 50.929,6.386 L50.929,4.586 L48.319,4.586 L48.319,14 L50.929,14 Z M59.893,14.198 C62.719,14.198 64.861,12.308 64.861,9.338 L64.861,9.194 C64.861,6.26 62.737,4.37 59.911,4.37 C57.085,4.37 54.943,6.296 54.943,9.248 L54.943,9.392 C54.943,12.326 57.085,14.198 59.893,14.198 Z M59.911,12.218 C58.435,12.218 57.607,11.138 57.607,9.338 L57.607,9.194 C57.607,7.394 58.471,6.35 59.911,6.35 C61.369,6.35 62.215,7.43 62.215,9.23 L62.215,9.356 C62.215,11.138 61.369,12.218 59.911,12.218 Z M69.217,17.204 L69.217,12.56 C69.703,13.478 70.765,14.198 72.223,14.198 C74.563,14.198 76.327,12.452 76.327,9.338 L76.327,9.194 C76.327,6.08 74.527,4.37 72.223,4.37 C70.837,4.37 69.739,5.162 69.217,6.062 L69.217,4.586 L66.607,4.586 L66.607,17.204 L69.217,17.204 Z M71.449,12.164 C70.027,12.164 69.127,11.246 69.127,9.356 L69.127,9.212 C69.127,7.322 70.063,6.368 71.431,6.368 C72.745,6.368 73.681,7.304 73.681,9.212 L73.681,9.356 C73.681,11.192 72.889,12.164 71.449,12.164 Z" id="path-2"></path>
    </defs>
    <g id="tripdrop" stroke="none" stroke-width="1" fill="none" fill-rule="evenodd">
        <g id="TripDrop" fill-rule="nonzero">
            <use fill="#FFFFFF" xlink:href="#path-2"></use>
            <use fill="url(#linearGradient-1)" xlink:href="#path-2"></use>
        </g>
    </g>
</svg>